# xmcd
#
# Track frame offsets: 
#        150
#        16052
#        26747
#        38637
#        53825
#        71685
#        88475
#        114735
#        130567
#        143450
#        156977
#        167730
#
# Disc length: 2383 seconds
#
# Revision: 0
# Processed by: cddbd v1.5.2PL0 Copyright (c) Steve Scherf et al.
# Submitted via: ExactAudioCopy v0.99pb4
#
DISCID=9b094d0c
DTITLE=Various Artist - Blues And R&B
DYEAR=1900
DGENRE=Blues
TTITLE0=T-Bone Walker - I'm Still In Love With You
TTITLE1=Roy Brown - Everybody
TTITLE2=Li'l Son Jackson - Movin' To The Country
TTITLE3=Muddy Waters - Hoochie Coochie Man
TTITLE4=Memphis Slim - Stackalee
TTITLE5=Mississippi Fred McDowell - Drop Down Mama
TTITLE6=Lightning Hopkins, Sonny Terry, Brownie McGee and Big Joe Willia
TTITLE6=ms - Wimmin' From Coast to Coast
TTITLE7=Big Joe Williams - Hand Me Down My Old Walking Stick
TTITLE8=Amos Milburn - Sax Shack Boogie
TTITLE9=Lowell Fulson - Don't Leave Me Baby
TTITLE10=Big Joe Turner - Jumpin' Tonight
TTITLE11=Peppermint Harris - I Got Loaded
EXTD=
EXTT0=
EXTT1=
EXTT2=
EXTT3=
EXTT4=
EXTT5=
EXTT6=
EXTT7=
EXTT8=
EXTT9=
EXTT10=
EXTT11=
PLAYORDER=
